<?xml version="1.0" standalone="no"?>
<!DOCTYPE svg PUBLIC "-//W3C//DTD SVG 20010904//EN"
 "http://www.w3.org/TR/2001/REC-SVG-20010904/DTD/svg10.dtd">
<svg version="1.0" xmlns="http://www.w3.org/2000/svg"
 width="1080.000000pt" height="1080.000000pt" viewBox="0 0 1080.000000 1080.000000"
 preserveAspectRatio="xMidYMid meet">
<metadata>
Created by potrace 1.14, written by Peter Selinger 2001-2017
</metadata>
<g transform="translate(0.000000,1080.000000) scale(0.100000,-0.100000)"
fill="#000000" stroke="none">
<path d="M3115 7666 c-66 -30 -195 -56 -280 -56 -68 0 -135 -16 -135 -33 0 -4
-4 -5 -10 -2 -5 3 -10 2 -10 -3 0 -23 -46 -33 -95 -22 -28 7 -63 13 -80 16
-27 3 -51 12 -96 35 -17 8 -167 6 -329 -5 -92 -7 -192 -29 -217 -48 -12 -10
-60 -4 -98 11 -11 5 -33 14 -48 20 -38 15 -159 14 -179 -1 -8 -7 -23 -38 -32
-69 -9 -31 -23 -64 -30 -75 -18 -26 -63 -151 -70 -194 -3 -19 -7 -61 -7 -92
l-2 -57 -28 20 c-16 11 -29 27 -29 35 0 8 -4 12 -10 9 -5 -3 -10 -1 -10 6 0 7
-3 10 -6 6 -3 -3 -34 6 -67 20 -34 14 -70 28 -81 32 -25 9 -143 -12 -183 -32
-18 -10 -37 -17 -44 -17 -12 0 -27 -15 -69 -70 -14 -18 -42 -52 -62 -74 -21
-23 -38 -44 -38 -48 0 -4 -6 -13 -13 -20 -7 -7 -19 -40 -26 -73 -12 -57 -68
-186 -84 -193 -4 -2 -5 -7 -2 -12 3 -5 -1 -14 -8 -22 -46 -46 -40 -74 33 -147
29 -29 50 -54 47 -57 -3 -3 -27 -1 -54 4 -47 8 -103 -1 -103 -17 0 -4 -20 -31
-44 -59 -25 -29 -48 -61 -51 -73 -4 -12 -12 -18 -21 -15 -7 3 -16 0 -20 -6 -4
-7 -3 -8 4 -4 7 4 12 3 12 -3 0 -13 -40 -41 -60 -41 -8 0 -26 -11 -40 -25 -35
-34 -52 -55 -45 -55 4 0 -3 -13 -14 -29 -12 -16 -21 -34 -21 -40 0 -6 -4 -11
-10 -11 -5 0 -10 -7 -10 -15 0 -8 -4 -15 -10 -15 -5 0 -10 -5 -10 -11 0 -6 -9
-23 -20 -38 -10 -15 -24 -58 -30 -94 -12 -77 -19 -97 -31 -97 -11 0 -84 -74
-106 -107 -8 -13 -19 -20 -24 -17 -5 3 -9 -6 -9 -20 0 -20 6 -27 28 -32 15 -3
36 -9 47 -13 11 -4 33 -4 50 0 16 5 41 11 55 13 176 31 239 36 490 40 281 5
350 10 350 29 0 6 3 8 6 4 3 -3 17 5 31 19 29 29 27 29 78 -1 22 -14 54 -31
72 -40 46 -21 174 -19 242 4 60 21 62 21 141 -24 143 -80 234 -94 385 -59 39
9 97 20 130 25 108 15 125 20 125 39 0 10 -7 25 -15 34 -8 8 -15 17 -15 21 0
3 -9 16 -21 28 -28 30 -62 77 -55 77 9 0 47 -23 66 -40 61 -55 139 -110 155
-110 10 0 23 11 139 113 32 29 61 51 65 50 4 -1 8 11 9 26 1 20 -8 37 -38 66
-22 21 -40 43 -40 47 0 10 78 -28 103 -50 9 -8 17 -12 17 -8 0 4 9 2 19 -3 27
-15 38 2 46 72 7 54 12 63 60 110 72 71 112 152 121 247 5 61 12 83 38 120 28
40 31 52 29 110 -2 36 -4 78 -6 95 -7 49 31 121 90 174 50 45 54 52 64 112 14
94 36 164 80 256 30 62 42 104 49 165 12 103 27 160 55 218 44 90 44 90 -22
89 -38 0 -75 -9 -108 -23z m-821 -818 c-75 -79 -123 -122 -164 -146 -25 -14
-59 -36 -76 -49 -17 -13 -36 -23 -42 -23 -7 0 -12 -4 -12 -10 0 -5 -6 -10 -12
-10 -7 0 -29 -14 -48 -30 -19 -16 -40 -30 -46 -30 -6 0 -16 -10 -23 -23 -10
-19 -10 -34 4 -81 19 -64 15 -79 -12 -46 -65 80 -88 93 -117 65 -8 -8 -18 -15
-22 -15 -4 0 -17 -8 -28 -18 -51 -45 -227 -142 -257 -142 -10 0 -21 -5 -24
-10 -5 -8 -12 -7 -23 2 -9 8 -13 8 -9 2 4 -7 0 -14 -8 -18 -28 -10 -15 11 43
70 70 71 109 104 115 98 3 -3 9 8 15 24 9 27 7 33 -19 58 -15 15 -26 31 -23
35 5 8 74 -33 69 -41 -2 -3 16 -6 40 -6 25 -1 46 4 49 11 2 6 43 31 90 54 48
24 114 65 148 92 34 27 65 49 70 49 5 0 6 5 3 10 -3 6 0 10 9 10 8 0 16 4 18
9 2 4 51 27 111 51 59 23 107 46 107 52 0 5 5 6 10 3 6 -3 10 -2 10 3 0 14 74
51 79 40 1 -5 -10 -23 -25 -40z"/>
<path d="M7280 7607 c-3 -3 -34 -8 -69 -12 -36 -3 -78 -13 -94 -21 -16 -9 -35
-13 -43 -10 -8 3 -13 2 -10 -3 6 -9 -52 -41 -72 -41 -6 0 -17 -6 -24 -13 -7
-7 -29 -24 -48 -37 -57 -40 -70 -52 -108 -105 -20 -27 -44 -58 -53 -68 -10
-10 -28 -51 -41 -90 -20 -62 -23 -92 -23 -212 0 -147 -2 -136 56 -271 23 -53
118 -149 164 -165 19 -7 35 -16 35 -21 0 -4 19 -13 43 -20 23 -6 44 -15 47
-18 3 -4 55 -19 115 -35 61 -15 148 -38 195 -50 47 -13 103 -26 125 -29 22 -3
63 -12 90 -20 28 -9 58 -16 67 -16 17 0 103 -39 158 -71 38 -22 50 -36 50 -58
0 -12 5 -21 10 -21 14 0 13 -89 -2 -131 -17 -52 -43 -80 -107 -115 -95 -52
-280 -70 -424 -39 -139 29 -207 100 -247 258 l-13 47 -198 0 -199 0 -1 -22
c-4 -95 20 -196 74 -306 28 -59 48 -83 106 -132 40 -33 89 -69 111 -80 21 -11
41 -24 44 -29 6 -9 124 -48 214 -70 23 -6 59 -15 81 -21 21 -5 95 -10 163 -10
114 0 154 5 368 44 69 13 198 87 263 150 82 81 116 128 150 206 37 88 51 176
43 276 -11 149 -53 239 -162 347 -36 36 -184 117 -213 117 -7 0 -22 5 -34 12
-12 6 -33 12 -47 13 -21 2 -196 41 -335 76 -22 6 -56 13 -75 16 -19 3 -40 9
-46 15 -7 5 -27 11 -45 13 -64 8 -162 55 -201 96 -45 48 -47 147 -5 199 20 25
95 81 114 85 10 2 36 11 58 19 25 9 76 15 137 16 199 0 347 -90 375 -231 l9
-44 204 0 205 0 -2 30 c-6 130 -62 278 -138 362 -42 48 -175 143 -235 170 -14
6 -42 18 -63 28 -21 9 -61 21 -90 27 -54 11 -398 23 -407 15z"/>
<path d="M9045 7600 c-66 -10 -149 -34 -211 -62 -27 -12 -52 -22 -55 -23 -10
0 -114 -83 -134 -107 -53 -62 -84 -109 -114 -177 -31 -67 -34 -85 -39 -192 -7
-176 18 -271 104 -385 25 -35 115 -104 133 -104 7 0 23 -8 38 -17 54 -36 236
-90 413 -124 139 -27 314 -74 370 -101 104 -50 138 -128 99 -230 -23 -61 -80
-124 -102 -112 -7 4 -9 4 -5 -1 14 -15 -29 -35 -108 -50 -87 -17 -281 -13
-349 7 -115 34 -188 117 -216 249 -6 26 -16 49 -22 51 -7 2 -96 2 -199 0
l-188 -3 -6 -25 c-10 -40 13 -155 45 -227 16 -36 27 -68 24 -71 -4 -3 -2 -6 4
-6 6 0 27 -25 46 -55 20 -30 60 -73 89 -95 29 -23 60 -47 70 -55 9 -7 19 -11
22 -8 3 4 6 1 6 -5 0 -6 17 -16 38 -23 20 -6 42 -15 48 -20 13 -11 181 -54
249 -64 80 -13 342 -6 440 11 50 9 113 26 140 39 28 13 62 27 78 30 15 4 27
11 27 16 0 5 4 9 9 9 10 0 70 51 131 110 69 68 128 183 145 285 16 97 16 98 3
205 -29 237 -173 373 -473 449 -98 24 -182 43 -210 47 -16 2 -46 10 -65 18
-20 8 -57 17 -83 21 -26 4 -47 11 -47 15 0 5 -9 6 -20 3 -11 -3 -26 -1 -33 5
-6 6 -30 14 -52 18 -118 22 -205 94 -205 171 0 58 11 82 61 131 45 46 109 82
144 82 11 0 26 5 32 11 13 13 184 7 254 -9 75 -18 189 -95 189 -129 0 -7 9
-27 20 -45 11 -18 20 -45 20 -60 l0 -28 205 0 205 0 0 28 c0 85 -39 223 -81
291 -48 76 -60 90 -123 140 -112 88 -231 145 -351 167 -75 14 -327 16 -410 4z"/>
<path d="M4083 7542 c-11 -11 -13 -191 -13 -973 l0 -959 208 2 207 3 1 25 c1
14 2 156 3 317 l1 292 24 24 c12 13 25 28 27 33 2 6 33 36 67 68 l64 58 23
-22 c13 -12 36 -47 50 -76 15 -30 30 -54 34 -54 4 0 25 -26 47 -57 21 -32 56
-80 76 -106 21 -27 38 -55 38 -63 0 -9 4 -13 9 -10 4 3 13 -5 19 -18 6 -13 34
-56 61 -95 28 -39 51 -74 51 -77 0 -3 13 -19 29 -36 17 -18 36 -43 43 -57 7
-15 19 -32 26 -39 6 -7 12 -17 12 -21 0 -4 13 -22 30 -41 16 -18 31 -36 32
-41 3 -7 200 -11 456 -10 85 1 92 2 92 21 0 11 -6 20 -12 20 -7 0 -29 23 -48
52 -19 28 -39 56 -45 62 -27 30 -95 126 -95 136 0 5 -5 10 -10 10 -6 0 -9 3
-8 8 3 8 -82 121 -119 160 -13 12 -23 25 -23 28 0 3 -9 14 -20 26 -10 11 -26
35 -34 52 -8 17 -27 42 -41 56 -14 14 -36 40 -48 60 -12 19 -43 64 -69 100
-27 36 -56 76 -66 89 -9 13 -24 34 -32 48 -8 14 -28 40 -45 58 -16 19 -49 61
-73 94 l-43 61 158 154 c87 84 174 169 193 189 19 20 126 129 237 241 112 113
199 207 194 210 -5 3 -126 6 -269 8 l-261 2 -39 -35 c-22 -19 -41 -37 -41 -42
-1 -4 -20 -26 -44 -50 -24 -23 -48 -49 -53 -57 -5 -8 -36 -40 -69 -70 -33 -30
-67 -66 -76 -80 -16 -26 -118 -135 -105 -112 4 6 5 12 2 12 -3 0 -13 -16 -22
-35 -9 -19 -23 -35 -30 -35 -8 0 -14 -4 -14 -8 0 -15 -62 -77 -73 -74 -7 2 -9
1 -5 -3 4 -4 -9 -24 -29 -44 -19 -20 -42 -46 -50 -58 -8 -13 -19 -20 -24 -17
-5 3 -9 -1 -9 -9 0 -8 -11 -22 -24 -30 l-23 -16 -6 57 c-3 31 -6 201 -7 377 0
175 -2 320 -3 321 -1 1 -87 4 -191 6 -148 2 -193 0 -203 -10z"/>
<path d="M6162 7550 c-100 -3 -182 -8 -182 -12 0 -5 0 -440 0 -968 l0 -959
183 -3 c100 -2 194 -2 210 0 l27 3 0 970 c0 830 -2 969 -14 969 -8 0 -20 1
-28 3 -7 1 -95 0 -196 -3z"/>
<path d="M3012 4783 l-32 -16 5 -116 c3 -64 12 -285 21 -491 21 -516 27 -598
51 -615 23 -18 73 -19 73 -2 0 6 -10 111 -21 232 -14 154 -22 340 -26 623 -6
445 -2 419 -71 385z"/>
<path d="M6461 4765 c-17 -15 -38 -39 -46 -54 -23 -46 -35 -210 -35 -502 0
-279 0 -283 -24 -323 -48 -83 -42 -134 10 -85 l22 21 6 -29 c12 -58 27 -234
21 -243 -3 -6 -2 -10 3 -10 5 0 13 -32 16 -71 4 -39 12 -83 17 -98 14 -36 49
-71 72 -71 15 0 17 5 13 28 -4 15 -11 72 -16 127 -5 55 -18 180 -30 278 -21
172 -21 179 -4 230 10 28 19 59 21 67 1 9 18 70 37 136 52 181 67 258 73 385
6 127 -3 172 -40 207 -38 36 -78 38 -116 7z m85 -66 c10 -16 6 -191 -5 -202
-5 -5 -7 -16 -4 -23 8 -22 -25 -199 -57 -304 l-29 -95 0 185 c-1 239 17 394
52 438 12 15 34 16 43 1z"/>
<path d="M650 4711 c-34 -9 -35 -24 -20 -281 11 -200 11 -215 -5 -225 -67 -39
-69 -68 -9 -105 l34 -22 0 -268 0 -268 23 -6 c49 -13 47 -22 47 254 0 143 1
260 3 260 2 0 21 -8 43 -19 108 -51 218 -98 299 -127 81 -29 90 -35 87 -56
-15 -119 -14 -168 8 -212 38 -80 144 -109 239 -66 25 12 75 52 112 90 38 38
70 66 72 62 2 -4 4 -20 5 -37 4 -65 20 -89 74 -114 42 -19 62 -23 110 -18 32
3 65 10 72 16 7 6 17 7 21 3 5 -4 5 -2 1 5 -3 7 2 14 14 18 11 3 49 38 85 77
35 40 66 70 69 67 2 -2 6 -188 9 -413 4 -225 10 -413 14 -417 19 -18 47 -13
60 11 11 20 12 85 7 328 l-7 302 34 0 c49 1 139 40 193 86 93 77 146 186 146
299 0 66 -3 73 -42 98 -38 24 -87 21 -141 -7 -25 -14 -48 -23 -51 -20 -3 2 -4
1 -1 -2 2 -4 -19 -33 -49 -64 -29 -32 -62 -76 -73 -98 l-20 -41 -12 117 c-7
64 -19 129 -27 144 -13 24 -58 48 -69 36 -3 -2 3 -59 12 -125 8 -66 13 -132
10 -145 -7 -26 -147 -148 -214 -186 -48 -27 -100 -27 -117 0 -9 14 -6 21 14
35 25 17 133 125 137 137 2 3 9 16 17 29 24 36 46 106 46 147 0 47 -24 69 -87
79 -40 6 -55 3 -95 -18 -28 -15 -55 -40 -70 -64 -13 -21 -29 -45 -35 -52 -7
-7 -13 -20 -13 -27 0 -52 -62 -158 -92 -158 -6 0 -33 -21 -61 -46 -63 -56
-111 -81 -156 -80 -38 1 -69 34 -41 44 14 5 88 78 141 140 33 39 69 133 69
181 0 25 -7 44 -20 56 -23 21 -104 31 -140 17 -14 -5 -29 -11 -35 -13 -16 -6
-75 -75 -75 -88 0 -6 -9 -11 -20 -11 -11 0 -20 5 -20 11 0 5 -5 7 -10 4 -20
-13 -214 77 -351 161 l-58 36 53 67 c29 36 90 121 136 188 46 68 87 120 93
116 6 -3 7 -1 3 5 -3 6 7 34 24 61 43 70 33 82 -47 52 -29 -12 -61 -51 -113
-142 -8 -14 -49 -70 -90 -123 l-75 -97 -12 193 c-6 106 -12 203 -12 216 -1 23
-9 25 -51 13z m738 -740 c5 -30 -22 -99 -51 -131 -30 -34 -96 -84 -103 -78 -6
7 41 145 58 167 54 72 90 88 96 42z m442 -3 c-1 -66 -64 -159 -132 -194 -15
-8 -28 -13 -28 -11 0 41 73 197 93 197 4 0 7 6 7 14 0 15 15 24 43 25 13 1 17
-7 17 -31z m583 -12 c13 -18 -1 -95 -26 -144 -25 -52 -84 -113 -142 -147 -43
-26 -111 -43 -100 -25 4 6 -1 7 -11 3 -13 -5 -15 -2 -9 18 14 46 70 144 114
203 74 98 144 135 174 92z"/>
<path d="M4307 4705 c-54 -15 -89 -36 -125 -74 -47 -50 -57 -81 -57 -171 0
-74 4 -92 30 -144 35 -70 179 -226 280 -302 38 -29 105 -80 148 -113 l77 -59
-57 -49 c-32 -26 -68 -60 -81 -76 -13 -15 -29 -24 -35 -20 -7 3 -9 3 -5 -1 4
-5 -11 -33 -32 -65 -21 -31 -46 -79 -55 -108 -14 -44 -15 -55 -3 -80 20 -42
59 -57 118 -44 61 13 160 61 204 98 19 15 55 46 81 67 84 71 96 132 45 221
l-30 52 58 41 c147 103 104 126 -75 40 l-50 -24 -61 46 c-33 25 -86 63 -117
85 -32 22 -63 45 -69 50 -6 6 -34 28 -61 50 -186 148 -272 304 -219 394 35 59
125 100 221 101 61 0 143 -23 143 -41 0 -5 5 -9 12 -9 6 0 19 -7 29 -16 30
-27 40 -8 22 39 -21 52 -53 80 -121 106 -61 24 -142 26 -215 6z m453 -947 c24
-40 25 -69 4 -115 -23 -46 -75 -98 -84 -83 -5 8 -9 7 -13 -3 -7 -19 -107 -57
-148 -57 -36 0 -45 19 -26 57 19 36 182 200 208 208 10 4 19 11 19 16 0 20 21
7 40 -23z"/>
<path d="M7622 4705 c-63 -16 -111 -46 -141 -90 -30 -45 -41 -89 -41 -171 0
-59 5 -81 30 -132 31 -61 156 -206 220 -254 19 -14 71 -54 115 -88 44 -35 99
-76 122 -93 l42 -30 -108 -106 c-115 -114 -162 -189 -163 -264 0 -46 14 -64
63 -77 31 -9 49 -7 101 10 59 20 218 116 218 132 0 4 8 5 18 1 9 -3 14 -3 10
2 -4 4 10 28 32 51 22 24 40 52 41 61 3 59 -5 92 -33 132 -28 39 -29 44 -14
53 34 19 140 104 144 116 9 28 -34 21 -128 -21 -76 -34 -102 -42 -110 -32 -5
6 -47 37 -92 68 -46 30 -92 64 -103 74 -11 10 -42 35 -69 55 -152 117 -266
265 -266 348 0 94 110 170 245 170 65 0 109 -15 156 -52 44 -34 49 -34 49 -5
-2 81 -96 148 -214 153 -39 2 -95 -3 -124 -11z m478 -1000 c0 -38 -41 -101
-88 -135 -90 -65 -222 -93 -214 -45 2 11 16 36 31 55 14 19 34 47 43 61 9 15
52 54 94 89 l78 62 28 -31 c15 -17 28 -42 28 -56z"/>
<path d="M10540 4686 c-32 -18 -80 -85 -107 -151 -33 -78 -43 -158 -44 -344
-1 -154 -3 -171 -18 -171 -78 0 -241 -155 -311 -295 -43 -86 -17 -175 50 -175
81 0 169 61 266 187 24 31 44 54 44 50 0 -14 41 -284 46 -302 13 -49 27 -75
41 -75 7 0 16 6 19 13 2 7 -7 113 -21 234 l-25 221 29 44 c111 165 201 441
201 617 l0 94 -36 33 c-39 38 -88 45 -134 20z m84 -99 c17 -62 -6 -253 -42
-361 -10 -29 -38 -87 -62 -130 l-45 -78 -9 43 c-11 58 9 339 29 403 38 124
110 192 129 123z m-224 -681 c-1 -45 -40 -104 -115 -174 -43 -40 -84 -71 -91
-68 -8 3 -11 0 -8 -8 5 -14 -42 -40 -57 -31 -17 11 -9 53 22 114 31 61 128
163 193 202 29 18 32 18 44 2 6 -9 12 -26 12 -37z"/>
<path d="M3404 4315 c-4 -15 -4 -76 0 -136 l7 -109 -23 1 c-55 1 -171 -20
-179 -32 -13 -21 -11 -41 7 -53 11 -8 39 -9 100 -3 47 5 87 7 90 4 3 -2 9 -67
14 -144 9 -147 30 -258 55 -297 41 -62 151 -62 216 0 23 22 29 23 52 13 20 -9
33 -9 57 1 28 11 31 17 28 49 -3 31 -7 36 -32 39 -18 2 -40 -4 -57 -17 -16
-12 -34 -21 -41 -21 -6 0 -23 -11 -37 -24 -15 -14 -38 -27 -53 -30 -68 -12
-96 66 -105 295 l-6 156 59 11 c62 12 125 21 200 28 25 2 50 6 55 10 13 8 11
44 -3 49 -7 3 -79 -1 -160 -8 l-148 -13 -1 95 c-2 142 -6 155 -51 159 -33 3
-38 0 -44 -23z"/>
<path d="M8463 4324 c-3 -8 -3 -69 -1 -134 l5 -119 -76 -6 c-110 -8 -126 -14
-126 -50 l0 -30 103 3 103 3 -1 -38 c-1 -56 18 -254 30 -310 16 -71 47 -130
73 -137 38 -10 106 -7 129 7 42 23 78 60 78 79 0 26 -29 22 -61 -8 -34 -33
-77 -39 -107 -16 -35 27 -52 113 -59 288 l-6 152 94 15 c52 9 120 18 151 20
l57 4 3 -235 3 -234 27 -23 c27 -23 68 -24 97 -1 17 13 58 76 85 131 l21 40 7
-49 c4 -28 5 -53 3 -57 -8 -12 48 -42 76 -41 34 1 85 26 122 60 l28 26 0 -29
c-1 -132 19 -717 24 -725 11 -17 54 -11 64 9 7 12 8 126 5 325 l-6 306 26 0
c37 0 124 32 169 63 37 25 117 114 117 130 0 4 4 6 9 3 5 -3 8 2 7 12 0 9 5
16 12 14 8 -1 11 2 8 7 -3 5 1 28 9 51 17 49 20 142 5 171 -16 29 -66 50 -115
48 -25 -2 -45 -6 -45 -10 0 -4 -8 -10 -18 -14 -33 -10 -109 -88 -150 -153
l-39 -64 -6 44 c-28 199 -30 210 -50 229 -23 21 -67 26 -67 7 0 -7 5 -31 9
-53 5 -22 14 -97 21 -167 l11 -127 -30 -28 c-86 -81 -107 -86 -128 -28 -12 31
-13 66 -8 160 4 66 8 134 8 150 2 28 0 30 -39 33 l-41 3 -6 -63 c-8 -99 -74
-274 -116 -312 -20 -18 -21 -18 -32 10 -8 20 -9 93 -4 242 8 235 7 242 -51
242 -27 0 -34 -4 -34 -20 0 -11 -3 -20 -7 -21 -5 0 -70 -6 -145 -13 l-138 -12
0 103 c0 127 -9 153 -50 153 -19 0 -33 -6 -37 -16z m1218 -354 c15 -8 19 -21
19 -58 0 -27 -5 -53 -12 -60 -7 -7 -9 -12 -5 -12 4 0 -1 -17 -12 -37 -20 -40
-75 -96 -126 -130 -36 -23 -111 -46 -125 -38 -40 25 113 271 200 323 42 25 37
24 61 12z"/>
<path d="M4998 4288 c-36 -46 -36 -47 -16 -59 41 -26 108 20 108 73 0 24 -4
28 -29 28 -22 0 -37 -10 -63 -42z"/>
<path d="M9880 4308 c-23 -25 -35 -61 -25 -77 21 -35 95 19 95 70 0 24 -4 29
-25 29 -13 0 -34 -10 -45 -22z"/>
<path d="M5197 4163 c-3 -5 -8 -141 -12 -304 -6 -268 -5 -297 10 -312 34 -35
52 -22 64 47 24 136 104 362 142 400 5 6 9 -50 9 -145 0 -204 4 -224 50 -217
17 2 27 14 37 43 18 53 81 182 108 223 22 32 23 32 28 10 3 -13 9 -48 13 -78
14 -110 68 -176 139 -167 22 3 48 8 58 12 15 7 17 -2 18 -96 1 -57 5 -232 8
-389 l6 -285 37 -1 38 -1 -6 320 c-4 211 -2 317 4 313 6 -3 12 -2 14 4 1 5 20
11 40 12 21 2 38 6 38 10 0 5 4 7 8 5 15 -4 141 84 171 121 57 69 83 132 90
227 9 111 3 119 -91 132 -42 6 -112 -25 -154 -68 -16 -16 -33 -25 -43 -22 -11
3 -12 2 -3 -4 9 -7 8 -14 -7 -29 -10 -12 -32 -44 -48 -72 l-29 -51 -13 107
c-15 128 -26 169 -51 182 -24 13 -63 13 -55 1 9 -16 23 -102 30 -186 3 -44 8
-102 10 -130 l4 -50 -45 2 c-25 1 -52 7 -60 14 -19 15 -41 98 -49 179 -11 115
-13 120 -59 120 -41 0 -84 -42 -124 -122 -16 -32 -32 -55 -35 -51 -4 3 -7 49
-7 102 0 109 -12 144 -51 149 -33 4 -87 -56 -131 -145 -17 -35 -32 -63 -34
-63 -2 0 -1 52 2 115 5 86 4 118 -6 130 -13 16 -55 21 -63 8z m1021 -199 c59
-41 -17 -210 -126 -281 -62 -40 -114 -58 -134 -47 -14 8 -15 14 -3 46 31 90
140 243 199 279 37 23 36 23 64 3z"/>
<path d="M5015 4090 c-18 -20 -18 -31 -6 -257 7 -130 16 -246 21 -258 14 -36
90 -41 90 -6 0 10 -4 42 -10 70 -5 29 -14 136 -20 239 -6 103 -13 197 -15 210
-7 28 -36 29 -60 2z"/>
<path d="M9879 4089 c-16 -16 -19 -29 -15 -57 3 -20 11 -131 17 -245 7 -115
17 -214 23 -222 11 -13 33 -19 67 -16 13 1 14 9 3 74 -7 39 -18 155 -24 257
-6 102 -13 195 -15 208 -7 28 -29 28 -56 1z"/>
<path d="M6725 4055 c-39 -18 -56 -33 -85 -75 -13 -19 -27 -37 -30 -40 -3 -3
-7 -12 -8 -20 -2 -8 -11 -42 -19 -75 -20 -76 -14 -189 12 -233 11 -17 33 -36
49 -43 38 -14 156 -28 156 -18 0 4 13 12 29 17 15 5 44 27 64 47 22 23 41 34
48 29 8 -4 9 -3 5 4 -4 7 3 22 15 34 43 46 79 102 79 125 0 12 -3 23 -6 23 -3
0 -32 -25 -63 -56 -73 -72 -195 -154 -230 -154 -14 0 -36 7 -48 15 -22 15 -21
17 63 97 114 110 166 219 138 293 -16 41 -110 58 -169 30z m95 -85 c0 -63 -67
-162 -132 -196 -29 -15 -29 -15 -22 13 22 92 74 193 106 206 34 14 48 7 48
-23z"/>
<path d="M2576 3631 c-41 -45 13 -101 69 -71 30 16 42 54 25 75 -18 21 -73 19
-94 -4z"/>
<path d="M7049 3629 c-27 -27 -21 -61 14 -73 54 -19 110 39 77 80 -18 21 -67
17 -91 -7z"/>
<path d="M10680 3630 c-28 -28 -25 -58 5 -72 53 -24 120 35 85 76 -18 22 -66
20 -90 -4z"/>
</g>
</svg>
